<?xml version="1.0" encoding="utf-8"?>
<!-- Svg Vector Icons : http://www.onlinewebfonts.com/icon -->
<!DOCTYPE svg PUBLIC "-//W3C//DTD SVG 1.1//EN" "http://www.w3.org/Graphics/SVG/1.1/DTD/svg11.dtd">
<svg version="1.1" xmlns="http://www.w3.org/2000/svg" xmlns:xlink="http://www.w3.org/1999/xlink" x="0px" y="0px" viewBox="0 0 256 256" enable-background="new 0 0 256 256" xml:space="preserve">
<metadata> Svg Vector Icons : http://www.onlinewebfonts.com/icon </metadata>
<g><g><path fill="#000000" d="M130.7,175.2"/><path fill="#000000" d="M111.4,149.3l-28.1-9.7v17.2c0,7.3,5.3,10.2,17.3,16.2c0.1,0,14.2,6.8,27.4,6.8c13.8,0,27.2-6.7,27.3-6.8c11.2-5.6,17.3-9.1,17.3-16.2v-17.2l-28.4,9.8C135.2,153.5,121,153.6,111.4,149.3z"/><path fill="#000000" d="M188.8,159.8c0.1,0.9,1,1.5,2.1,1.5c1,0,1.9-0.7,2-1.5l-2.1-8.1L188.8,159.8z"/><path fill="#000000" d="M128,10C62.8,10,10,62.8,10,128c0,65.2,52.8,118,118,118c65.2,0,118-52.8,118-118C246,62.8,193.2,10,128,10z M179.9,156.8c0,11.9-10.3,17.1-21.1,22.6c-0.8,0.4-15.3,7.7-30.8,7.7c-14.8,0-30-7.2-30.6-7.5c-12-6-21.4-10.7-21.4-22.8v-27.4l38.1,13.2c8.4,3.7,19.7,3.6,27.5,0.1l38.3-13.3V156.8z M190.9,166.7c-4.3,0-7.6-3.2-7.6-7.2l0.1-0.7l2.3-9.1c0.2-2.6,2.5-4.6,5.2-4.6c2.7,0,4.9,2,5.1,4.6l2.4,9.8C198.4,163.5,195,166.7,190.9,166.7z M199.3,110.1v15.6c0,4.5-3.8,8.1-8.4,8.1c-4.8,0-8.5-3.6-8.5-8.1v-8.9l-42.3,14.6c-6.6,3.1-17.6,3.1-24.2,0l-56.3-19.4c-5.6-2.7-6.4-6.5-6.4-8.5s0.8-5.7,6.4-8.5l56.2-23.7c3.1-1.6,7.5-2.5,12.1-2.5c4.6,0,9,0.9,12.4,2.6L196.2,95c5.7,2.8,6.6,6.5,6.6,8.4C202.8,104.9,202.3,107.6,199.3,110.1z"/><path fill="#000000" d="M193.1,101.6l-55.8-23.5c-5-2.5-13.8-2.4-18.4-0.1l-56.2,23.7c-1.8,0.9-2.2,1.8-2.2,1.9c0,0.1,0.4,0.9,2.2,1.9l56.2,19.4c4.6,2.2,13.7,2.2,18.3,0l0.4-0.1l52.1-18v19.1c0,1.2,2.4,1.1,2.4,0v-19.7l1.8-1c1.3-0.7,1.6-1.3,1.6-1.5C195.5,103.4,195,102.5,193.1,101.6z"/></g></g>
</svg>